
<svg xmlns="http://www.w3.org/2000/svg" version="1.1" xmlns:xlink="http://www.w3.org/1999/xlink" xmlns:svgjs="http://svgjs.dev/svgjs" width="1000" height="1000" viewBox="0 0 1000 1000"><rect width="1000" height="1000" fill="#000000"></rect><g transform="matrix(0.7,0,0,0.7,150.0000000000001,106.25)"><svg viewBox="0 0 320 360" data-background-color="#28353b" preserveAspectRatio="xMidYMid meet" height="1125" width="1000" xmlns="http://www.w3.org/2000/svg" xmlns:xlink="http://www.w3.org/1999/xlink"><g id="tight-bounds" transform="matrix(1,0,0,1,0,0)"><svg viewBox="0 0 320 360" height="360" width="320"><g><svg></svg></g><g><svg viewBox="0 0 320 360" height="360" width="320"><g><path xmlns="http://www.w3.org/2000/svg" d="M20.961 227.22l3.726 4.658-1.863-6.056c-0.466-2.795-3.726 0.466-1.863 1.398M25.153 224.425c1.397 2.329 2.795 4.658 2.795 6.987 0 3.261 2.795 4.658 5.123 5.589-3.261-3.726-5.124-13.974-7.918-12.576M204.017 26.929c7.918 0 15.371-0.932 23.756 0.931 20.495 5.124 37.729 15.371 49.374 29.811l32.606 52.169c1.397 13.042 4.192 27.482 3.726 43.319 3.261 0 2.795-4.658 6.521-5.59-3.726 9.316-5.59 20.961-6.521 34.469-2.329-7.453 0-18.632 0.466-24.687-3.261 5.124-5.124 1.397-5.124-0.932 0.466-3.726-1.397-3.261-2.795-4.658-5.124-4.658-8.384-9.782-12.11-17.7 2.329-6.055 2.795-14.905-4.658-19.563-2.329-1.397-5.124-3.726-6.521-7.453-1.863-5.124-5.124-11.179-4.193-19.097 0.466-2.329-6.987 5.124-11.179 1.863-18.166-12.576-36.332-27.016-58.224-39.127-11.645 0-20.029-4.192-24.221-9.316-3.726-4.658-0.932-10.713 4.658-11.179 3.261 0 6.987-0.932 9.782 0.932 0.466-1.863 2.329-4.192 4.657-4.192M157.904 16.215l0.932 0.466c4.658 0.932 6.987 7.453 12.11 5.124 0 3.261 0.466 6.521-0.466 8.85-1.397 3.726-5.59 3.726-8.85 3.726-31.208-1.863-49.374 11.179-68.471 22.358-5.124 3.261-10.713 5.59-14.906 9.782-20.029 18.632-41.921 35.866-47.045 70.335l-4.192 38.195c-0.466 4.192-5.124 8.384-4.192 13.508l3.26 22.824c-3.261-3.261-5.124 0.932-4.192 2.795 0.466 1.397 2.329 6.055 5.124 1.863 3.726 6.987 7.453 20.495 12.576 26.55 15.837 18.632 36.332 35.4 53.101 52.169 4.192-0.932 7.453-0.932 8.384-3.727 1.397 2.795-1.397 5.59-3.726 6.056 7.453 4.658 15.837 8.85 27.016 9.781 14.44 0.932 27.948 3.261 40.524 6.522 6.521-1.863 13.042-2.795 20.029-3.261 2.329 0 3.726-3.726 6.521-4.658l0.466-4.658c2.795 4.192 2.329-1.397 0.466-4.192 3.261 2.795 4.192 5.124 5.589 6.987 0-1.397 3.726-6.521 3.727-0.466l0.931-6.055c1.397-0.932 1.863 5.124 3.261 0.931 1.397-4.192 4.192-0.932 6.987-2.329-0.932 1.863-0.466 5.59 2.794 3.261l3.727-3.261c2.329 5.59 6.055 3.261 7.918 2.329 20.495-13.042 40.99-28.413 60.553-43.784l-0.466 6.055 2.329-7.453c2.329 2.329 4.192 0.466 5.124-0.931 2.795-4.658 6.521-9.316 12.577-13.508-7.453 20.029-16.303 35.866-27.482 48.908l-4.658 5.59c0 3.261-0.932 7.453-4.658 7.918-1.863 0.466-5.59-0.932-8.384 1.863-1.397 1.863 3.261 5.59-0.466 2.795-3.261-2.329-6.521 0-10.248 0.932-2.795 0.932 1.863 3.726 2.795 5.589 0.932 1.863 1.863 3.726 1.398 6.056l-5.124-5.59c-6.055 3.261-9.782 9.316-14.906 13.974-2.329 1.863-1.397 5.124-1.397 7.918-3.261 0-6.987-0.932-8.85 0.932-1.397 1.863-0.932 4.658-0.932 7.453-4.658-0.466-5.124-7.453-9.315-6.056-4.192 0.932-8.85 1.397-12.577 3.727 2.795 5.59-4.658 2.329-3.726 3.26-6.987-4.192-13.042-7.453-20.495-4.658-15.837-5.124-35.4-2.795-49.84-0.931 0-2.329 0.466-4.658-0.466-5.124-0.932 2.329-3.726 1.397-3.26 1.397-8.85-6.055-17.7-9.782-27.016-14.905-8.384 0.932-16.303-3.261-18.632-5.59-6.521-6.055-13.974-2.795-20.029-4.192-13.042-3.261-17.7-16.769-19.098-26.084-0.932-4.658-4.658-6.521-6.055-6.056-6.055-19.563-15.371-37.263-22.824-55.429-1.863-4.658-1.397-9.316-1.397-14.44 2.329 0.932 4.658 0.466 4.192-2.794-2.329-15.371-7.918-27.016-13.974-38.195 3.261-15.837 3.726-34.469 11.179-48.443 6.521-12.576 18.632-19.098 27.016-29.811 2.795-3.726 2.795-8.85 5.59-12.11 9.316-9.316 18.632-19.098 28.879-27.482 4.658-3.726 10.247 0 17.234-1.397 2.329-8.384 11.645-15.837 20.495-13.508 3.726 0.932 11.179-8.85 13.508-9.782 3.726-1.397 1.863 3.726 1.863 6.987 8.85-6.987 20.961-10.713 32.14-14.906" fill="#ffffff" fill-rule="nonzero" stroke="none" stroke-width="1" stroke-linecap="butt" stroke-linejoin="miter" stroke-miterlimit="10" stroke-dasharray="" stroke-dashoffset="0" font-family="none" font-weight="none" font-size="none" text-anchor="none" style="mix-blend-mode: normal" data-fill-palette-color="tertiary"></path></g><g transform="matrix(1,0,0,1,64,155.10881238652678)"><svg viewBox="0 0 192 49.782375226946456" height="49.782375226946456" width="192"><g><svg viewBox="0 0 192 49.782375226946456" height="49.782375226946456" width="192"><g transform="matrix(1,0,0,1,0,30.089387927112103)"><svg viewBox="0 0 192 19.69298729983435" height="19.69298729983435" width="192"><g id="textblocktransform"><svg viewBox="0 0 192 19.69298729983435" height="19.69298729983435" width="192" id="textblock"><g><svg viewBox="0 0 192 19.69298729983435" height="19.69298729983435" width="192"><g transform="matrix(1,0,0,1,0,0)"><svg width="192" viewBox="1.0499999523162842 -36.54999923706055 362.1600036621094 37.14999771118164" height="19.69298729983435" data-palette-color="#ffffff"><path d="M7.75 0.6Q5.2 0.6 3.13-1.05 1.05-2.7 1.05-6.8L1.05-6.8Q1.05-11.85 4.48-13.85 7.9-15.85 14.2-15.85L14.2-15.85 14.2-18.85Q14.2-20.55 13.5-21.5 12.8-22.45 10.95-22.45L10.95-22.45Q9.15-22.45 8.33-21.5 7.5-20.55 7.5-19.2L7.5-19.2 7.5-18.5 2.25-18.5Q2.2-18.8 2.2-19.6L2.2-19.6Q2.2-23 4.6-24.95 7-26.9 10.95-26.9L10.95-26.9Q15.25-26.9 17.4-24.93 19.55-22.95 19.55-19.3L19.55-19.3 19.55-5.7Q19.55-4.8 19.95-4.38 20.35-3.95 20.95-3.95L20.95-3.95 22.3-3.95 22.3-0.2Q20.8 0.55 19.05 0.55L19.05 0.55Q17.35 0.55 16.18-0.38 15-1.3 14.55-2.85L14.55-2.85 14.3-2.85Q13.15-1.15 11.6-0.28 10.05 0.6 7.75 0.6L7.75 0.6ZM9.7-3.95Q11.8-3.95 13-5.6 14.2-7.25 14.2-9.95L14.2-9.95 14.2-11.75Q10.65-11.75 8.6-10.78 6.55-9.8 6.55-7.25L6.55-7.25Q6.55-3.95 9.7-3.95L9.7-3.95ZM36.7 0.6Q34.85 0.6 33.3-0.38 31.75-1.35 30.8-3.2L30.8-3.2 30.55-3.2 30 0 25.65 0 25.65-36.15 31-36.15 31-23.65 31.25-23.65Q31.9-25.15 33.47-26.03 35.05-26.9 37-26.9L37-26.9Q40.6-26.9 42.82-23.48 45.05-20.05 45.05-13.2L45.05-13.2Q45.05-6.2 42.87-2.8 40.7 0.6 36.7 0.6L36.7 0.6ZM35.25-4.25Q37.45-4.25 38.45-6.2 39.45-8.15 39.45-12.2L39.45-12.2 39.45-14.1Q39.45-18.15 38.45-20.1 37.45-22.05 35.25-22.05L35.25-22.05Q33.05-22.05 32.02-20.03 31-18 31-13.95L31-13.95 31-12.2Q31-8.2 32.02-6.23 33.05-4.25 35.25-4.25L35.25-4.25ZM57.49 0.6Q53.49 0.6 51.32-2.8 49.14-6.2 49.14-13.2L49.14-13.2Q49.14-20.05 51.37-23.48 53.59-26.9 57.2-26.9L57.2-26.9Q59.14-26.9 60.7-26.05 62.24-25.2 62.95-23.65L62.95-23.65 63.2-23.65 63.2-36.15 68.55-36.15 68.55 0 64.19 0 63.59-3.2 63.34-3.2Q62.45-1.35 60.89-0.38 59.34 0.6 57.49 0.6L57.49 0.6ZM58.95-4.25Q61.14-4.25 62.17-6.23 63.2-8.2 63.2-12.2L63.2-12.2 63.2-13.95Q63.2-18 62.17-20.03 61.14-22.05 58.95-22.05L58.95-22.05Q56.74-22.05 55.72-20.1 54.7-18.15 54.7-14.1L54.7-14.1 54.7-12.2Q54.7-8.15 55.72-6.2 56.74-4.25 58.95-4.25L58.95-4.25ZM83.29 0.6Q78.24 0.6 75.69-2.75 73.14-6.1 73.14-13.15L73.14-13.15Q73.14-26.9 83.14-26.9L83.14-26.9Q87.79-26.9 90.09-23.7 92.39-20.5 92.39-13.65L92.39-13.65 92.39-11.75 78.69-11.75Q78.74-7.75 79.84-5.8 80.94-3.85 83.34-3.85L83.34-3.85Q85.04-3.85 86.07-5.28 87.09-6.7 87.09-9.2L87.09-9.2 92.39-9.2Q92.39-4.45 89.89-1.93 87.39 0.6 83.29 0.6L83.29 0.6ZM78.74-15.85L86.74-15.85Q86.74-19.05 85.84-20.75 84.94-22.45 83.14-22.45L83.14-22.45Q81.04-22.45 79.99-20.8 78.94-19.15 78.74-15.85L78.74-15.85ZM96.84 0L96.84-36.15 102.19-36.15 102.19 0 96.84 0ZM116.94 0.6Q111.89 0.6 109.36-2.75 106.84-6.1 106.84-13.15L106.84-13.15Q106.84-20.2 109.36-23.55 111.89-26.9 116.94-26.9L116.94-26.9Q122.04-26.9 124.56-23.53 127.09-20.15 127.09-13.15L127.09-13.15Q127.09-6.15 124.56-2.78 122.04 0.6 116.94 0.6L116.94 0.6ZM116.94-3.95Q119.29-3.95 120.39-6 121.49-8.05 121.49-12.2L121.49-12.2 121.49-14.1Q121.49-18.25 120.39-20.3 119.29-22.35 116.94-22.35L116.94-22.35Q114.59-22.35 113.49-20.3 112.39-18.25 112.39-14.1L112.39-14.1 112.39-12.2Q112.39-8.05 113.49-6 114.59-3.95 116.94-3.95L116.94-3.95ZM138.74 0.6Q131.94 0.6 131.94-7.7L131.94-7.7 131.94-26.3 137.28-26.3 137.28-8.85Q137.28-6.35 138.16-5.3 139.03-4.25 140.78-4.25L140.78-4.25Q142.64-4.25 143.91-5.88 145.19-7.5 145.19-10.1L145.19-10.1 145.19-26.3 150.54-26.3 150.54 0 146.19 0 145.59-3.2 145.28-3.2Q144.24-1.45 142.56-0.43 140.89 0.6 138.74 0.6L138.74 0.6ZM161.13 0.6Q158.58 0.6 156.51-1.05 154.43-2.7 154.43-6.8L154.43-6.8Q154.43-11.85 157.86-13.85 161.28-15.85 167.58-15.85L167.58-15.85 167.58-18.85Q167.58-20.55 166.88-21.5 166.18-22.45 164.33-22.45L164.33-22.45Q162.53-22.45 161.71-21.5 160.88-20.55 160.88-19.2L160.88-19.2 160.88-18.5 155.63-18.5Q155.58-18.8 155.58-19.6L155.58-19.6Q155.58-23 157.98-24.95 160.38-26.9 164.33-26.9L164.33-26.9Q168.63-26.9 170.78-24.93 172.93-22.95 172.93-19.3L172.93-19.3 172.93-5.7Q172.93-4.8 173.33-4.38 173.73-3.95 174.33-3.95L174.33-3.95 175.68-3.95 175.68-0.2Q174.18 0.55 172.43 0.55L172.43 0.55Q170.73 0.55 169.56-0.38 168.38-1.3 167.93-2.85L167.93-2.85 167.68-2.85Q166.53-1.15 164.98-0.28 163.43 0.6 161.13 0.6L161.13 0.6ZM163.08-3.95Q165.18-3.95 166.38-5.6 167.58-7.25 167.58-9.95L167.58-9.95 167.58-11.75Q164.03-11.75 161.98-10.78 159.93-9.8 159.93-7.25L159.93-7.25Q159.93-3.95 163.08-3.95L163.08-3.95ZM179.03 0L179.03-36.15 184.38-36.15 184.38-23.5 184.58-23.5Q185.58-25.05 187.16-25.98 188.73-26.9 190.78-26.9L190.78-26.9Q197.63-26.9 197.63-18.6L197.63-18.6 197.63 0 192.28 0 192.28-17.45Q192.28-19.95 191.38-21 190.48-22.05 188.73-22.05L188.73-22.05Q186.88-22.05 185.63-20.4 184.38-18.75 184.38-16.15L184.38-16.15 184.38 0 179.03 0ZM212.38 0.6Q207.33 0.6 204.78-2.75 202.23-6.1 202.23-13.15L202.23-13.15Q202.23-26.9 212.23-26.9L212.23-26.9Q216.88-26.9 219.18-23.7 221.48-20.5 221.48-13.65L221.48-13.65 221.48-11.75 207.78-11.75Q207.83-7.75 208.93-5.8 210.03-3.85 212.43-3.85L212.43-3.85Q214.13-3.85 215.15-5.28 216.18-6.7 216.18-9.2L216.18-9.2 221.48-9.2Q221.48-4.45 218.98-1.93 216.48 0.6 212.38 0.6L212.38 0.6ZM207.83-15.85L215.83-15.85Q215.83-19.05 214.93-20.75 214.03-22.45 212.23-22.45L212.23-22.45Q210.13-22.45 209.08-20.8 208.03-19.15 207.83-15.85L207.83-15.85ZM233.68 0.6Q229.68 0.6 227.5-2.8 225.33-6.2 225.33-13.2L225.33-13.2Q225.33-20.05 227.55-23.48 229.78-26.9 233.38-26.9L233.38-26.9Q235.33-26.9 236.88-26.05 238.43-25.2 239.13-23.65L239.13-23.65 239.38-23.65 239.38-36.15 244.73-36.15 244.73 0 240.38 0 239.78-3.2 239.53-3.2Q238.63-1.35 237.08-0.38 235.53 0.6 233.68 0.6L233.68 0.6ZM235.13-4.25Q237.33-4.25 238.35-6.23 239.38-8.2 239.38-12.2L239.38-12.2 239.38-13.95Q239.38-18 238.35-20.03 237.33-22.05 235.13-22.05L235.13-22.05Q232.93-22.05 231.9-20.1 230.88-18.15 230.88-14.1L230.88-14.1 230.88-12.2Q230.88-8.15 231.9-6.2 232.93-4.25 235.13-4.25L235.13-4.25ZM261.97 0L261.97-21.75 259.42-21.75 259.42-26.3 261.97-26.3 261.97-29.85Q261.97-32.7 263.32-34.63 264.67-36.55 267.82-36.55L267.82-36.55Q268.77-36.55 269.95-36.38 271.12-36.2 271.87-35.95L271.87-35.95 271.87-32.05 269.47-32.05Q268.42-32.05 267.87-31.48 267.32-30.9 267.32-29.8L267.32-29.8 267.32-26.3 271.87-26.3 271.87-21.75 267.32-21.75 267.32 0 261.97 0ZM279.62 0.6Q277.07 0.6 274.99-1.05 272.92-2.7 272.92-6.8L272.92-6.8Q272.92-11.85 276.34-13.85 279.77-15.85 286.07-15.85L286.07-15.85 286.07-18.85Q286.07-20.55 285.37-21.5 284.67-22.45 282.82-22.45L282.82-22.45Q281.02-22.45 280.19-21.5 279.37-20.55 279.37-19.2L279.37-19.2 279.37-18.5 274.12-18.5Q274.07-18.8 274.07-19.6L274.07-19.6Q274.07-23 276.47-24.95 278.87-26.9 282.82-26.9L282.82-26.9Q287.12-26.9 289.27-24.93 291.42-22.95 291.42-19.3L291.42-19.3 291.42-5.7Q291.42-4.8 291.82-4.38 292.22-3.95 292.82-3.95L292.82-3.95 294.17-3.95 294.17-0.2Q292.67 0.55 290.92 0.55L290.92 0.55Q289.22 0.55 288.04-0.38 286.87-1.3 286.42-2.85L286.42-2.85 286.17-2.85Q285.02-1.15 283.47-0.28 281.92 0.6 279.62 0.6L279.62 0.6ZM281.57-3.95Q283.67-3.95 284.87-5.6 286.07-7.25 286.07-9.95L286.07-9.95 286.07-11.75Q282.52-11.75 280.47-10.78 278.42-9.8 278.42-7.25L278.42-7.25Q278.42-3.95 281.57-3.95L281.57-3.95ZM297.52 0L297.52-26.3 301.87-26.3 302.42-23.1 302.72-23.1Q303.82-24.85 305.47-25.88 307.12-26.9 309.27-26.9L309.27-26.9Q316.12-26.9 316.12-18.6L316.12-18.6 316.12 0 310.77 0 310.77-17.45Q310.77-19.95 309.87-21 308.97-22.05 307.22-22.05L307.22-22.05Q305.37-22.05 304.12-20.4 302.87-18.75 302.87-16.15L302.87-16.15 302.87 0 297.52 0ZM326.71 0.6Q324.16 0.6 322.09-1.05 320.01-2.7 320.01-6.8L320.01-6.8Q320.01-11.85 323.44-13.85 326.86-15.85 333.16-15.85L333.16-15.85 333.16-18.85Q333.16-20.55 332.46-21.5 331.76-22.45 329.91-22.45L329.91-22.45Q328.11-22.45 327.29-21.5 326.46-20.55 326.46-19.2L326.46-19.2 326.46-18.5 321.21-18.5Q321.16-18.8 321.16-19.6L321.16-19.6Q321.16-23 323.56-24.95 325.96-26.9 329.91-26.9L329.91-26.9Q334.21-26.9 336.36-24.93 338.51-22.95 338.51-19.3L338.51-19.3 338.51-5.7Q338.51-4.8 338.91-4.38 339.31-3.95 339.91-3.95L339.91-3.95 341.26-3.95 341.26-0.2Q339.76 0.55 338.01 0.55L338.01 0.55Q336.31 0.55 335.14-0.38 333.96-1.3 333.51-2.85L333.51-2.85 333.26-2.85Q332.11-1.15 330.56-0.28 329.01 0.6 326.71 0.6L326.71 0.6ZM328.66-3.95Q330.76-3.95 331.96-5.6 333.16-7.25 333.16-9.95L333.16-9.95 333.16-11.75Q329.61-11.75 327.56-10.78 325.51-9.8 325.51-7.25L325.51-7.25Q325.51-3.95 328.66-3.95L328.66-3.95ZM344.61 0L344.61-26.3 348.96-26.3 349.51-23.1 349.81-23.1Q350.91-24.85 352.56-25.88 354.21-26.9 356.36-26.9L356.36-26.9Q363.21-26.9 363.21-18.6L363.21-18.6 363.21 0 357.86 0 357.86-17.45Q357.86-19.95 356.96-21 356.06-22.05 354.31-22.05L354.31-22.05Q352.46-22.05 351.21-20.4 349.96-18.75 349.96-16.15L349.96-16.15 349.96 0 344.61 0Z" opacity="1" transform="matrix(1,0,0,1,0,0)" fill="#ffffff" class="wordmark-text-0" data-fill-palette-color="primary" id="text-0"></path></svg></g></svg></g></svg></g></svg></g><g transform="matrix(1,0,0,1,82.39372898367326,0)"><svg viewBox="0 0 27.21254203265348 27.215708448371075" height="27.215708448371075" width="27.21254203265348"><g><svg xmlns="http://www.w3.org/2000/svg" xmlns:xlink="http://www.w3.org/1999/xlink" version="1.1" x="0" y="0" viewBox="7.063138484954834 6.651815414428711 85.23826599121094 85.24818420410156" style="enable-background:new 0 0 100 100;" xml:space="preserve" height="27.215708448371075" width="27.21254203265348" class="icon-icon-0" data-fill-palette-color="accent" id="icon-0"><path d="M28.9 91.9c-1.5 0-3-0.3-4.4-0.8-4.5-1.6-7.8-5.3-8.7-10L7.3 36.7c-0.9-4.7 0.8-9.6 4.5-12.7L28.6 9.8c3.7-3.1 8.8-4 13.2-2.3l41.9 15.7c4.5 1.7 7.6 5.5 8.4 10.2 0.8 4.7-0.8 9.3-4.5 12.4L37.5 88.7C35.1 90.8 32 91.9 28.9 91.9zM37.2 12.7c-1.7 0-3.4 0.6-4.7 1.7L15.6 28.6c-2 1.7-3 4.4-2.5 7L21.7 80c0.5 2.6 2.3 4.6 4.8 5.5 2.5 0.9 5.2 0.4 7.2-1.3l50.2-42.9c2-1.7 2.9-4.2 2.5-6.8-0.5-2.6-2.2-4.7-4.6-5.6L39.7 13.2C38.9 12.8 38 12.7 37.2 12.7z" fill="#ffffff" data-fill-palette-color="accent"></path></svg></g></svg></g><g></g></svg></g></svg></g></svg></g><defs></defs></svg><rect width="320" height="360" fill="none" stroke="none" visibility="hidden"></rect></g></svg></g></svg>